<svg xmlns="http://www.w3.org/2000/svg" viewBox="0 0 330.38 169.35"><defs><style>.cls-1{fill:#e1483f;}.cls-2{font-size:36px;fill:#f8f7f8;font-family:ArialRoundedMTBold, Arial Rounded MT Bold;}.cls-3{fill:#ccc8c9;}</style></defs><g id="Layer_2" data-name="Layer 2"><path class="cls-1" d="M172.53,338s-64.09-72.26,0-161.79l10,10.56s-53.67,71.34,1,143Z" transform="translate(-144.04 -168.65)"/><path class="cls-1" d="M176.06,253.85l14.66,1s-2.36-66.06,80-72.53v-13.6S191.72,163,176.06,253.85Z" transform="translate(-144.04 -168.65)"/><path class="cls-1" d="M223.4,216s46-38.47,95,0l-7.83,8.47s-35.95-33.21-80.29-1Z" transform="translate(-144.04 -168.65)"/></g><g id="Layer_3" data-name="Layer 3"><text class="cls-2" transform="translate(66.38 99)">ANKIT KUMAR</text><path class="cls-3" d="M213.55,279.76a35.51,35.51,0,0,1,6-.48c3.07,0,5.35.71,6.8,2a6.62,6.62,0,0,1,2.13,5.08,7.15,7.15,0,0,1-1.89,5.19c-1.67,1.77-4.35,2.65-7.41,2.65a10.27,10.27,0,0,1-2.53-.22v9.73h-3.14Zm3.14,11.69a9.62,9.62,0,0,0,2.59.27c3.8,0,6.1-1.86,6.1-5.18s-2.29-4.78-5.73-4.78a14.91,14.91,0,0,0-3,.25Z" transform="translate(-144.04 -168.65)"/><path class="cls-3" d="M253.46,291.36c0,8.32-5.08,12.77-11.26,12.77-6.44,0-10.91-5-10.91-12.32,0-7.68,4.76-12.74,11.24-12.74S253.46,284.15,253.46,291.36Zm-18.85.38c0,5.19,2.82,9.84,7.76,9.84s7.77-4.57,7.77-10.09c0-4.83-2.52-9.87-7.73-9.87S234.61,286.43,234.61,291.74Z" transform="translate(-144.04 -168.65)"/><path class="cls-3" d="M257.51,279.8a33.12,33.12,0,0,1,6-.52c3.32,0,5.51.63,7,2a6.09,6.09,0,0,1,1.9,4.61,6.4,6.4,0,0,1-4.57,6.18v.09c1.85.65,3,2.4,3.55,4.91a41.17,41.17,0,0,0,1.87,6.66h-3.25a31.94,31.94,0,0,1-1.59-5.81c-.72-3.32-2-4.61-4.87-4.7h-3v10.51h-3.13Zm3.13,11.05h3.2c3.36,0,5.48-1.83,5.48-4.61,0-3.15-2.27-4.52-5.58-4.53a13.4,13.4,0,0,0-3.1.28Z" transform="translate(-144.04 -168.65)"/><path class="cls-3" d="M281.83,282.12h-7.39v-2.65h18v2.65H285v21.61h-3.15Z" transform="translate(-144.04 -168.65)"/><path class="cls-3" d="M295.09,279.47h13.07v2.61h-9.92v8.08h9.17v2.59h-9.17v11h-3.15Z" transform="translate(-144.04 -168.65)"/><path class="cls-3" d="M333.37,291.36c0,8.32-5.07,12.77-11.25,12.77-6.44,0-10.91-5-10.91-12.32,0-7.68,4.76-12.74,11.24-12.74S333.37,284.15,333.37,291.36Zm-18.84.38c0,5.19,2.81,9.84,7.76,9.84s7.77-4.57,7.77-10.09c0-4.83-2.52-9.87-7.73-9.87S314.53,286.43,314.53,291.74Z" transform="translate(-144.04 -168.65)"/><path class="cls-3" d="M337.43,279.47h3.15v21.62H351v2.64H337.43Z" transform="translate(-144.04 -168.65)"/><path class="cls-3" d="M357.57,279.47v24.26h-3.15V279.47Z" transform="translate(-144.04 -168.65)"/><path class="cls-3" d="M383.77,291.36c0,8.32-5.07,12.77-11.26,12.77-6.43,0-10.9-5-10.9-12.32,0-7.68,4.76-12.74,11.23-12.74C379.47,279.07,383.77,284.15,383.77,291.36Zm-18.85.38c0,5.19,2.82,9.84,7.76,9.84s7.78-4.57,7.78-10.09c0-4.83-2.52-9.87-7.74-9.87S364.92,286.43,364.92,291.74Z" transform="translate(-144.04 -168.65)"/></g></svg>