<svg xmlns="http://www.w3.org/2000/svg" viewBox="0 0 210.58 210.58"><defs><style>.cls-1{fill:#e84c3d;}.cls-2{fill:none;}</style></defs><title>Asset 164</title><g id="Layer_2" data-name="Layer 2"><g id="Layer_1-2" data-name="Layer 1"><g id="rvRAp9.tif"><path class="cls-1" d="M93,155.09c3.36-9.19,5.8-17.93,9.68-26,7.64-15.85,21.34-23,38.42-24.25,4.09-.3,8.23,0,13.16,0-3.19,14.29-8.37,27.22-19,37.43C123.75,153.35,109.64,156.47,93,155.09Z"/><path class="cls-1" d="M125.2,100.53,100.3,117.7l-20-16.1c-1.58-13.78,8.81-36.39,22.34-47.41C117,66.87,126.61,87.12,125.2,100.53Z"/><path class="cls-1" d="M87.71,151.15c-22.68-7.8-32.3-25.81-38-47.21,16.43-1.66,40.61,6.44,46.75,20.49Z"/><path class="cls-1" d="M127.36,154.92c12.26-6.69,20.41-16.93,26.39-29.7A92.82,92.82,0,0,1,184,139.35C166.44,150.56,148.13,156.78,127.36,154.92Z"/><path class="cls-1" d="M51.89,126.58C58.67,139.17,67.66,149.1,80.68,155c-20,1.5-37.63-4.87-54.5-15.43C33.38,132.2,42.19,129.08,51.89,126.58Z"/><path class="cls-1" d="M61.47,96.29l1.84-15.05,12.39,5.69-1.53,13Z"/><path class="cls-1" d="M131.47,99.49l-1.66-12.83,11.83-5.47,1.65,15.6Z"/></g></g><g id="Isolation_Mode" data-name="Isolation Mode"><rect class="cls-2" width="210.58" height="210.58"/></g></g></svg>